<?xml version='1.0' encoding='utf-8'?>
<mxfile host="app.diagrams.net"><diagram name="Integration Diagram"><mxGraphModel><root><mxCell id="0" /><mxCell id="1" parent="0" /><mxCell id="2" value="Интернет-банк" style="shape=rectangle;whiteSpace=wrap;html=1;fillColor=#dae8fc;" vertex="1" parent="1"><mxGeometry x="100" y="100" width="220" height="80" as="geometry" /></mxCell><mxCell id="3" value="АБС (Delphi + Oracle)" style="shape=rectangle;whiteSpace=wrap;html=1;fillColor=#dae8fc;" vertex="1" parent="1"><mxGeometry x="450" y="100" width="220" height="80" as="geometry" /></mxCell><mxCell id="4" value="Сайт (PHP + React)" style="shape=rectangle;whiteSpace=wrap;html=1;fillColor=#dae8fc;" vertex="1" parent="1"><mxGeometry x="100" y="300" width="220" height="80" as="geometry" /></mxCell><mxCell id="5" value="Кол-центр (Java + React)" style="shape=rectangle;whiteSpace=wrap;html=1;fillColor=#dae8fc;" vertex="1" parent="1"><mxGeometry x="450" y="300" width="220" height="80" as="geometry" /></mxCell><mxCell id="6" value="Система СМС-шлюза" style="shape=rectangle;whiteSpace=wrap;html=1;fillColor=#dae8fc;" vertex="1" parent="1"><mxGeometry x="800" y="100" width="220" height="80" as="geometry" /></mxCell><mxCell id="7" value="Партнёрский кол-центр" style="shape=rectangle;whiteSpace=wrap;html=1;fillColor=#dae8fc;" vertex="1" parent="1"><mxGeometry x="800" y="300" width="220" height="80" as="geometry" /></mxCell><mxCell id="8" value="SQL-запросы напрямую к БД" style="edgeStyle=orthogonalEdgeStyle;rounded=1;html=1;endArrow=block;" edge="1" parent="1" source="2" target="3"><mxGeometry relative="1" as="geometry" /></mxCell><mxCell id="9" value="Уведомления клиенту" style="edgeStyle=orthogonalEdgeStyle;rounded=1;html=1;endArrow=block;" edge="1" parent="1" source="2" target="6"><mxGeometry relative="1" as="geometry" /></mxCell><mxCell id="10" value="Передача заявки → звонок клиенту" style="edgeStyle=orthogonalEdgeStyle;rounded=1;html=1;endArrow=block;" edge="1" parent="1" source="4" target="5"><mxGeometry relative="1" as="geometry" /></mxCell><mxCell id="11" value="Создание обращений в АБС" style="edgeStyle=orthogonalEdgeStyle;rounded=1;html=1;endArrow=block;" edge="1" parent="1" source="5" target="3"><mxGeometry relative="1" as="geometry" /></mxCell><mxCell id="12" value="Работа по скриптам / звонки" style="edgeStyle=orthogonalEdgeStyle;rounded=1;html=1;endArrow=block;" edge="1" parent="1" source="7" target="5"><mxGeometry relative="1" as="geometry" /></mxCell></root></mxGraphModel></diagram></mxfile>